<svg id="图层_1" data-name="图层 1" xmlns="http://www.w3.org/2000/svg" xmlns:xlink="http://www.w3.org/1999/xlink" viewBox="0 0 500 500"><defs><style>.cls-1{fill:url(#未命名的渐变_22);}.cls-2{fill:url(#未命名的渐变_22-2);}.cls-3{fill:url(#未命名的渐变_22-3);}.cls-4{fill:url(#未命名的渐变_22-4);}.cls-5{fill:none;}</style><linearGradient id="未命名的渐变_22" x1="22.37" y1="234.84" x2="208.9" y2="234.84" gradientUnits="userSpaceOnUse"><stop offset="0" stop-color="#f94141"/><stop offset="1" stop-color="#bc0808"/></linearGradient><linearGradient id="未命名的渐变_22-2" x1="224.93" y1="236.83" x2="258.36" y2="236.83" xlink:href="#未命名的渐变_22"/><linearGradient id="未命名的渐变_22-3" x1="271.6" y1="236.83" x2="305.03" y2="236.83" xlink:href="#未命名的渐变_22"/><linearGradient id="未命名的渐变_22-4" x1="321.74" y1="231.72" x2="466.88" y2="231.72" xlink:href="#未命名的渐变_22"/></defs><title>画板 1</title><path class="cls-1" d="M115.63,141.57a93.27,93.27,0,1,0,93.27,93.27A93.27,93.27,0,0,0,115.63,141.57ZM137,183A7.53,7.53,0,0,1,152,183v44a7.53,7.53,0,0,1-15.06,0Zm-23.3-4.28a7.55,7.55,0,0,1,7.53-7.53h0a7.55,7.55,0,0,1,7.53,7.53v48.29a7.55,7.55,0,0,1-7.53,7.53h0a7.55,7.55,0,0,1-7.53-7.53ZM89.92,183a7.55,7.55,0,0,1,7.53-7.53h0A7.55,7.55,0,0,1,105,183v44a7.55,7.55,0,0,1-7.53,7.53h0a7.55,7.55,0,0,1-7.53-7.53Zm72.7,89.82a25.55,25.55,0,0,1-25.36,25.58h-43a25.52,25.52,0,0,1-25.12-22.09l-.47-80.52a7.2,7.2,0,0,1,6-7.2,7,7,0,0,1,8.09,6.94s0,78.71,0,78.92A10.84,10.84,0,0,0,93,282.19h45.54a10.87,10.87,0,0,0,10.79-10.88v-5.09a10.87,10.87,0,0,0-10.79-10.88H113.82a7.69,7.69,0,0,0,3-.35,8,8,0,0,1-2.24.33,8.08,8.08,0,0,1-8-8.11c0-3.86,2.67-4.32,6.25-5.14,0-.07,24.48-.21,24.48-.21,13.95,0,25.36,8.75,25.36,22.82Z"/><path class="cls-2" d="M258.36,291.21H224.93V182.45h33.43Z"/><path class="cls-3" d="M305,291.21H271.6V182.45H305Z"/><path class="cls-4" d="M371.56,226l-49.81,3v-8.13l5-.38V181.88h-5v-8.32h77l-5,8.32h-3.31v34.81l8.28-.57-5,8.32-3.31.19v5.3l-18.87,1.14Zm-49.81,13.24,145.14-9.46v8.32l-51,3.4v10H423l3.14,3.59,26.15-11V253l-19.86,8.7,18.7,20h15.72l-5,8.13H437.09l-21.18-22.7v22.7H397V276.83l-75.3,4.92v-8.13l75.3-5.11v-8.7l-75.3,4.92v-8.32l75.3-4.92V242.6l-75.3,4.92Zm23.83-57.31v7h26v-7Zm0,22.32h26V197h-26Zm26,13.62v-5.49h-26v7ZM433,183H400.52v-9.27h58.75l-14.56,18.92,22.18,32.16L446,226.33l-12.41-19.11-16.05,21-20,1.14Z"/><rect id="_切片_" data-name="&lt;切片&gt;" class="cls-5" x="14" y="137" width="464" height="196"/></svg>